<svg xmlns="http://www.w3.org/2000/svg" xmlns:xlink="http://www.w3.org/1999/xlink" width="500" zoomAndPan="magnify" viewBox="0 0 375 149.999998" height="200" preserveAspectRatio="xMidYMid meet" version="1.0"><defs><g/></defs><path fill="#4a044e" d="M 80.507812 5.960938 C 70.78125 5.960938 62.84375 13.910156 62.84375 23.652344 C 62.84375 33.398438 70.773438 41.339844 80.507812 41.339844 C 90.230469 41.339844 98.167969 33.390625 98.167969 23.652344 C 98.167969 13.910156 90.230469 5.960938 80.507812 5.960938 Z M 79.226562 119.15625 C 85.824219 119.15625 92.421875 119.15625 99.019531 119.15625 C 100.28125 119.15625 100.96875 122.769531 98.996094 122.976562 L 60.644531 122.976562 C 59.535156 122.976562 52.816406 122.65625 52.816406 120.894531 L 52.816406 97.285156 L 46.269531 97.285156 L 46.304688 122.90625 C 46.210938 126.136719 41.898438 125.886719 42.019531 122.683594 L 42.019531 95.046875 C 42.019531 92.089844 43.609375 86.402344 47.335938 86.402344 L 76.453125 86.402344 C 77.03125 86.941406 77.671875 87.414062 78.359375 87.800781 C 78.429688 88.535156 78.132812 89.292969 77.34375 89.566406 L 54.742188 89.566406 L 64.242188 113.839844 L 77.234375 105.355469 C 78.777344 104.347656 79.691406 103.09375 81.390625 105.226562 C 82.800781 106.929688 84.613281 109.996094 86.066406 112.601562 L 79.226562 112.601562 Z M 103.402344 41.789062 C 112.671875 47.886719 119.449219 54.988281 124.183594 61.980469 C 130.773438 71.730469 133.417969 81.230469 133.417969 87.460938 L 133.417969 123.949219 C 133.289062 125.953125 130.332031 125.78125 130.332031 123.613281 L 130.332031 99.996094 C 130.332031 85.34375 116.125 72.304688 113.480469 70.011719 L 100.429688 50.195312 L 83.933594 81.652344 C 83.671875 82.148438 83.28125 82.398438 82.855469 82.457031 C 82.199219 81.523438 81.328125 80.769531 80.234375 80.320312 C 80.183594 79.964844 80.234375 79.59375 80.421875 79.242188 L 96.570312 48.363281 Z M 129.578125 58.316406 C 122.300781 47.5625 113.519531 40.265625 102.558594 33.546875 L 91.296875 44.371094 L 74.648438 76.210938 C 74 77.453125 73.679688 78.675781 73.625 79.84375 L 47.335938 79.84375 C 39.554688 79.84375 35.472656 88.253906 35.472656 95.046875 L 35.472656 123.871094 C 35.472656 124.53125 35.542969 125.148438 35.671875 125.722656 L 22.878906 125.722656 L 22.878906 132.277344 L 147.078125 132.277344 L 147.078125 125.722656 L 139.679688 125.722656 C 139.8125 125.167969 139.910156 124.578125 139.964844 123.949219 L 139.964844 87.460938 C 139.964844 80.191406 136.992188 69.285156 129.578125 58.316406 Z M 84.261719 88.929688 C 86.386719 88.546875 88.371094 87.238281 89.707031 84.699219 L 101.070312 63.015625 L 108.582031 74.421875 C 115.632812 79.984375 123.789062 90.773438 123.789062 99.996094 L 123.789062 123.613281 C 123.789062 124.363281 123.871094 125.066406 124.027344 125.722656 L 105.636719 125.722656 C 107.988281 120.726562 105.777344 112.601562 99.019531 112.601562 L 93.460938 112.601562 C 91.847656 109.5625 88.496094 103.507812 85.953125 100.539062 C 81.929688 95.976562 77.132812 97.628906 72.886719 100.402344 L 67.40625 103.980469 L 64.320312 96.125 L 78.726562 96.035156 C 81.992188 95.269531 83.867188 92.191406 84.261719 88.929688 Z M 80.507812 12.515625 C 86.65625 12.515625 91.625 17.488281 91.625 23.652344 C 91.625 29.800781 86.648438 34.785156 80.507812 34.785156 C 74.371094 34.785156 69.386719 29.792969 69.386719 23.652344 C 69.386719 17.496094 74.363281 12.515625 80.507812 12.515625 Z M 48.351562 46.367188 C 44.089844 46.367188 40.1875 48.113281 37.390625 50.917969 C 34.589844 53.722656 32.84375 57.628906 32.84375 61.894531 C 32.84375 70.449219 39.8125 77.425781 48.351562 77.425781 C 56.898438 77.425781 63.859375 70.457031 63.859375 61.894531 C 63.859375 53.34375 56.890625 46.367188 48.351562 46.367188 Z M 42.011719 55.546875 C 43.625 53.925781 45.878906 52.921875 48.351562 52.921875 C 53.324219 52.921875 57.3125 56.914062 57.3125 61.894531 C 57.3125 66.859375 53.304688 70.871094 48.351562 70.871094 C 43.386719 70.871094 39.390625 66.867188 39.390625 61.894531 C 39.390625 59.417969 40.394531 57.164062 42.011719 55.546875 Z M 42.011719 55.546875 " fill-opacity="1" fill-rule="evenodd"/><g fill="#4a044e" fill-opacity="1"><g transform="translate(166.682045, 47.896646)"><g><path d="M 11.566406 -28.417969 C 11.566406 -29.683594 11.515625 -31.109375 11.144531 -32.21875 C 10.773438 -33.273438 10.195312 -34.015625 9.296875 -34.015625 C 7.816406 -33.960938 7.339844 -32.429688 7.339844 -30.160156 C 7.339844 -28.839844 7.921875 -27.464844 8.769531 -25.988281 C 9.613281 -24.507812 10.722656 -22.976562 11.832031 -21.339844 C 13.152344 -19.382812 14.472656 -17.378906 15.476562 -15.421875 C 16.480469 -13.46875 17.164062 -11.460938 17.164062 -9.347656 C 17.164062 -6.761719 16.742188 -4.332031 15.527344 -2.535156 C 14.3125 -0.738281 12.359375 0.421875 9.242188 0.421875 C 5.597656 0.421875 3.539062 -0.949219 2.375 -3.0625 C 1.214844 -5.175781 0.949219 -7.976562 0.949219 -10.878906 L 6.550781 -11.410156 C 6.550781 -9.769531 6.601562 -8.132812 7.023438 -6.917969 C 7.394531 -5.652344 8.027344 -4.804688 9.242188 -4.804688 C 10.933594 -4.804688 11.566406 -6.601562 11.566406 -9.085938 C 11.566406 -10.351562 10.933594 -11.832031 10.089844 -13.363281 C 9.613281 -14.101562 9.136719 -14.894531 8.609375 -15.6875 C 7.5 -17.269531 6.285156 -19.066406 5.019531 -21.023438 C 3.75 -22.976562 2.800781 -24.984375 2.21875 -27.042969 C 1.902344 -28.046875 1.742188 -29.101562 1.742188 -30.160156 C 1.742188 -32.273438 2.21875 -34.542969 3.433594 -36.285156 C 4.648438 -37.976562 6.496094 -39.191406 9.191406 -39.242188 C 12.625 -39.296875 14.628906 -37.871094 15.738281 -35.8125 C 16.847656 -33.699219 17.164062 -31.109375 17.164062 -28.945312 Z M 11.566406 -28.417969 "/></g></g></g><g fill="#4a044e" fill-opacity="1"><g transform="translate(184.795045, 47.896646)"><g><path d="M 16.953125 -7.976562 C 16.902344 -6.390625 16.585938 -4.964844 16.003906 -3.75 C 15.527344 -2.695312 14.789062 -1.691406 13.734375 -0.898438 C 12.675781 -0.0546875 11.25 0.421875 9.347656 0.421875 C 7.449219 0.421875 5.96875 -0.0546875 4.910156 -0.898438 C 3.855469 -1.691406 3.167969 -2.695312 2.695312 -3.75 C 2.113281 -4.964844 1.796875 -6.390625 1.742188 -7.976562 L 1.742188 -30.84375 C 1.796875 -32.378906 2.113281 -33.804688 2.695312 -35.019531 C 3.167969 -36.074219 3.855469 -37.132812 4.910156 -37.921875 C 5.96875 -38.714844 7.449219 -39.242188 9.347656 -39.242188 C 11.25 -39.242188 12.675781 -38.714844 13.734375 -37.921875 C 14.789062 -37.132812 15.527344 -36.074219 16.003906 -35.019531 C 16.585938 -33.804688 16.902344 -32.378906 16.953125 -30.84375 Z M 11.25 -30.84375 C 11.25 -31.902344 11.039062 -32.640625 10.511719 -33.273438 C 10.246094 -33.539062 9.824219 -33.699219 9.347656 -33.699219 C 8.34375 -33.699219 7.871094 -32.957031 7.660156 -32.273438 C 7.5 -31.847656 7.449219 -31.375 7.449219 -30.84375 L 7.449219 -7.976562 C 7.449219 -6.867188 7.710938 -6.125 8.238281 -5.546875 C 8.503906 -5.28125 8.875 -5.125 9.347656 -5.125 C 10.351562 -5.125 10.828125 -5.757812 11.039062 -6.550781 C 11.199219 -6.917969 11.25 -7.394531 11.25 -7.976562 Z M 11.25 -30.84375 "/></g></g></g><g fill="#4a044e" fill-opacity="1"><g transform="translate(203.48892, 47.896646)"><g><path d="M 2.113281 -38.820312 L 7.816406 -38.820312 L 7.816406 -5.28125 L 15.371094 -5.28125 L 15.371094 0 L 2.113281 0 Z M 2.113281 -38.820312 "/></g></g></g><g fill="#4a044e" fill-opacity="1"><g transform="translate(219.067152, 47.896646)"><g><path d="M 2.113281 -38.820312 L 7.816406 -38.820312 L 7.816406 0 L 2.113281 0 Z M 2.113281 -38.820312 "/></g></g></g><g fill="#4a044e" fill-opacity="1"><g transform="translate(228.994973, 47.896646)"><g><path d="M 2.113281 0 L 2.113281 -38.820312 L 6.601562 -38.820312 C 11.882812 -38.820312 14.734375 -37.765625 16.269531 -34.808594 C 17.746094 -31.847656 17.957031 -26.988281 17.957031 -19.382812 C 17.957031 -11.777344 17.746094 -6.972656 16.269531 -4.015625 C 14.734375 -1.054688 11.882812 0 6.601562 0 Z M 7.816406 -5.703125 C 9.769531 -5.703125 10.878906 -5.914062 11.460938 -7.816406 C 11.726562 -8.714844 11.9375 -10.089844 11.988281 -11.9375 C 12.042969 -13.785156 12.042969 -16.269531 12.042969 -19.4375 C 12.042969 -22.605469 12.042969 -25.089844 11.988281 -26.9375 C 11.9375 -28.734375 11.726562 -30.105469 11.460938 -31.058594 C 10.878906 -32.90625 9.769531 -33.117188 7.816406 -33.117188 Z M 7.816406 -5.703125 "/></g></g></g><g fill="#4a044e" fill-opacity="1"><g transform="translate(248.639398, 47.896646)"><g><path d="M 0.527344 0 L 6.390625 -38.820312 L 13.363281 -38.820312 L 19.226562 0 L 13.679688 0 L 12.625 -7.921875 L 7.128906 -7.921875 L 6.074219 0 Z M 10.195312 -26.199219 L 10.035156 -27.203125 L 9.71875 -27.203125 L 9.558594 -26.199219 L 7.921875 -13.945312 L 11.832031 -13.945312 Z M 10.195312 -26.199219 "/></g></g></g><g fill="#4a044e" fill-opacity="1"><g transform="translate(268.389424, 47.896646)"><g><path d="M 12.304688 0 L 9.347656 -16.375 L 7.816406 -16.375 L 7.816406 0 L 2.113281 0 L 2.113281 -38.820312 L 7.816406 -38.820312 C 14.628906 -38.820312 17.535156 -34.964844 17.535156 -27.625 C 17.535156 -23.769531 16.53125 -20.28125 14.367188 -18.804688 L 18.011719 0 Z M 7.816406 -21.65625 C 8.609375 -21.65625 9.664062 -21.761719 10.511719 -22.5 C 11.355469 -23.238281 12.042969 -24.664062 12.042969 -27.414062 C 12.042969 -30.160156 11.355469 -31.636719 10.511719 -32.378906 C 9.664062 -33.117188 8.609375 -33.167969 7.816406 -33.167969 Z M 7.816406 -21.65625 "/></g></g></g><g fill="#4a044e" fill-opacity="1"><g transform="translate(287.452957, 47.896646)"><g><path d="M 2.113281 -38.820312 L 7.816406 -38.820312 L 7.816406 0 L 2.113281 0 Z M 2.113281 -38.820312 "/></g></g></g><g fill="#4a044e" fill-opacity="1"><g transform="translate(297.380778, 47.896646)"><g><path d="M 0.105469 -32.957031 L 0.105469 -38.820312 L 16.585938 -38.820312 L 16.585938 -32.957031 L 11.199219 -32.957031 L 11.199219 0 L 5.492188 0 L 5.492188 -32.957031 Z M 0.105469 -32.957031 "/></g></g></g><g fill="#4a044e" fill-opacity="1"><g transform="translate(314.067969, 47.896646)"><g><path d="M 8.820312 -26.410156 L 8.980469 -26.039062 L 9.085938 -26.039062 L 9.242188 -26.410156 L 12.09375 -38.820312 L 17.695312 -38.820312 L 11.882812 -16.53125 L 11.882812 0 L 6.179688 0 L 6.179688 -16.53125 L 0.371094 -38.820312 L 5.96875 -38.820312 Z M 8.820312 -26.410156 "/></g></g></g><g fill="#4a044e" fill-opacity="1"><g transform="translate(162.422323, 106.167054)"><g><path d="M 12.253906 -16.902344 L 7.816406 -16.902344 L 7.816406 0 L 2.113281 0 L 2.113281 -38.820312 L 7.816406 -38.820312 L 7.816406 -22.765625 L 12.253906 -22.765625 L 12.253906 -38.820312 L 17.957031 -38.820312 L 17.957031 0 L 12.253906 0 Z M 12.253906 -16.902344 "/></g></g></g><g fill="#4a044e" fill-opacity="1"><g transform="translate(182.489198, 106.167054)"><g><path d="M 0.527344 0 L 6.390625 -38.820312 L 13.363281 -38.820312 L 19.226562 0 L 13.679688 0 L 12.625 -7.921875 L 7.128906 -7.921875 L 6.074219 0 Z M 10.195312 -26.199219 L 10.035156 -27.203125 L 9.71875 -27.203125 L 9.558594 -26.199219 L 7.921875 -13.945312 L 11.832031 -13.945312 Z M 10.195312 -26.199219 "/></g></g></g><g fill="#4a044e" fill-opacity="1"><g transform="translate(202.239224, 106.167054)"><g><path d="M 16.953125 -13.308594 L 16.953125 -7.976562 C 16.902344 -6.390625 16.585938 -4.964844 16.003906 -3.75 C 15.527344 -2.695312 14.789062 -1.691406 13.734375 -0.898438 C 12.675781 -0.0546875 11.25 0.421875 9.347656 0.421875 C 7.449219 0.421875 5.96875 -0.0546875 4.910156 -0.898438 C 3.855469 -1.691406 3.167969 -2.695312 2.695312 -3.75 C 2.113281 -4.964844 1.796875 -6.390625 1.742188 -7.976562 L 1.742188 -30.84375 C 1.796875 -32.378906 2.113281 -33.804688 2.695312 -35.019531 C 3.167969 -36.074219 3.855469 -37.132812 4.910156 -37.921875 C 5.96875 -38.714844 7.449219 -39.242188 9.347656 -39.242188 C 11.25 -39.242188 12.675781 -38.714844 13.734375 -37.921875 C 14.789062 -37.132812 15.527344 -36.074219 16.003906 -35.019531 C 16.585938 -33.804688 16.902344 -32.378906 16.953125 -30.84375 L 16.953125 -25.511719 L 11.621094 -25.511719 L 11.621094 -30.84375 C 11.621094 -31.902344 11.355469 -32.640625 10.773438 -33.273438 C 10.511719 -33.539062 10.035156 -33.699219 9.453125 -33.699219 C 8.449219 -33.699219 7.976562 -32.957031 7.710938 -32.273438 C 7.554688 -31.847656 7.5 -31.375 7.449219 -30.84375 L 7.449219 -7.976562 C 7.5 -6.867188 7.816406 -6.125 8.34375 -5.546875 C 8.609375 -5.28125 8.980469 -5.125 9.453125 -5.125 C 10.667969 -5.125 11.144531 -5.757812 11.410156 -6.550781 C 11.566406 -6.917969 11.621094 -7.394531 11.621094 -7.976562 L 11.621094 -13.308594 Z M 16.953125 -13.308594 "/></g></g></g><g fill="#4a044e" fill-opacity="1"><g transform="translate(220.510648, 106.167054)"><g><path d="M 7.816406 -38.820312 L 7.816406 -25.246094 L 8.027344 -25.246094 L 8.292969 -25.878906 L 13.046875 -38.820312 L 18.59375 -38.820312 L 13.363281 -26.039062 L 19.277344 0 L 13.734375 0 L 9.769531 -16.902344 L 9.613281 -17.695312 L 9.453125 -17.695312 L 9.136719 -16.902344 L 7.816406 -13.734375 L 7.816406 0 L 2.113281 0 L 2.113281 -38.820312 Z M 7.816406 -38.820312 "/></g></g></g><g fill="#4a044e" fill-opacity="1"><g transform="translate(240.313482, 106.167054)"><g><path d="M 0.527344 0 L 6.390625 -38.820312 L 13.363281 -38.820312 L 19.226562 0 L 13.679688 0 L 12.625 -7.921875 L 7.128906 -7.921875 L 6.074219 0 Z M 10.195312 -26.199219 L 10.035156 -27.203125 L 9.71875 -27.203125 L 9.558594 -26.199219 L 7.921875 -13.945312 L 11.832031 -13.945312 Z M 10.195312 -26.199219 "/></g></g></g><g fill="#4a044e" fill-opacity="1"><g transform="translate(260.063508, 106.167054)"><g><path d="M 0.105469 -32.957031 L 0.105469 -38.820312 L 16.585938 -38.820312 L 16.585938 -32.957031 L 11.199219 -32.957031 L 11.199219 0 L 5.492188 0 L 5.492188 -32.957031 Z M 0.105469 -32.957031 "/></g></g></g><g fill="#4a044e" fill-opacity="1"><g transform="translate(276.750698, 106.167054)"><g><path d="M 12.253906 -16.902344 L 7.816406 -16.902344 L 7.816406 0 L 2.113281 0 L 2.113281 -38.820312 L 7.816406 -38.820312 L 7.816406 -22.765625 L 12.253906 -22.765625 L 12.253906 -38.820312 L 17.957031 -38.820312 L 17.957031 0 L 12.253906 0 Z M 12.253906 -16.902344 "/></g></g></g><g fill="#4a044e" fill-opacity="1"><g transform="translate(296.817574, 106.167054)"><g><path d="M 16.953125 -7.976562 C 16.902344 -6.390625 16.585938 -4.964844 16.003906 -3.75 C 15.527344 -2.695312 14.789062 -1.691406 13.734375 -0.898438 C 12.675781 -0.0546875 11.25 0.421875 9.347656 0.421875 C 7.449219 0.421875 5.96875 -0.0546875 4.910156 -0.898438 C 3.855469 -1.691406 3.167969 -2.695312 2.695312 -3.75 C 2.113281 -4.964844 1.796875 -6.390625 1.742188 -7.976562 L 1.742188 -30.84375 C 1.796875 -32.378906 2.113281 -33.804688 2.695312 -35.019531 C 3.167969 -36.074219 3.855469 -37.132812 4.910156 -37.921875 C 5.96875 -38.714844 7.449219 -39.242188 9.347656 -39.242188 C 11.25 -39.242188 12.675781 -38.714844 13.734375 -37.921875 C 14.789062 -37.132812 15.527344 -36.074219 16.003906 -35.019531 C 16.585938 -33.804688 16.902344 -32.378906 16.953125 -30.84375 Z M 11.25 -30.84375 C 11.25 -31.902344 11.039062 -32.640625 10.511719 -33.273438 C 10.246094 -33.539062 9.824219 -33.699219 9.347656 -33.699219 C 8.34375 -33.699219 7.871094 -32.957031 7.660156 -32.273438 C 7.5 -31.847656 7.449219 -31.375 7.449219 -30.84375 L 7.449219 -7.976562 C 7.449219 -6.867188 7.710938 -6.125 8.238281 -5.546875 C 8.503906 -5.28125 8.875 -5.125 9.347656 -5.125 C 10.351562 -5.125 10.828125 -5.757812 11.039062 -6.550781 C 11.199219 -6.917969 11.25 -7.394531 11.25 -7.976562 Z M 11.25 -30.84375 "/></g></g></g><g fill="#4a044e" fill-opacity="1"><g transform="translate(315.51145, 106.167054)"><g><path d="M 8.132812 -20.230469 L 7.660156 -22.023438 L 7.339844 -22.023438 L 7.339844 0 L 2.113281 0 L 2.113281 -38.820312 L 7.183594 -38.820312 L 12.730469 -18.59375 L 13.203125 -16.796875 L 13.519531 -16.796875 L 13.519531 -38.820312 L 18.75 -38.820312 L 18.75 0 L 13.679688 0 Z M 8.132812 -20.230469 "/></g></g></g><g fill="#4a044e" fill-opacity="1"><g transform="translate(218.725296, 132.130354)"><g><path d="M 8.625 0 L 7.371094 -6.457031 L 5.679688 -6.457031 L 4.339844 -1.929688 L 2.992188 -6.457031 L 1.300781 -6.457031 L 0.046875 0 L 1.613281 0 L 2.375 -4.453125 L 3.636719 0 L 5.035156 0 L 6.296875 -4.453125 L 7.058594 0 Z M 8.625 0 "/></g></g></g><g fill="#4a044e" fill-opacity="1"><g transform="translate(229.294643, 132.130354)"><g><path d="M 5.554688 -3.238281 C 5.554688 -2.242188 4.652344 -1.328125 3.65625 -1.328125 C 2.660156 -1.328125 1.757812 -2.242188 1.757812 -3.238281 C 1.757812 -4.234375 2.660156 -5.140625 3.65625 -5.140625 C 4.652344 -5.140625 5.554688 -4.234375 5.554688 -3.238281 Z M 6.980469 -3.230469 C 6.980469 -5.015625 5.441406 -6.554688 3.65625 -6.554688 C 1.871094 -6.554688 0.332031 -5.015625 0.332031 -3.230469 C 0.332031 -1.445312 1.871094 0.09375 3.65625 0.09375 C 5.441406 0.09375 6.980469 -1.445312 6.980469 -3.230469 Z M 6.980469 -3.230469 "/></g></g></g><g fill="#4a044e" fill-opacity="1"><g transform="translate(238.506283, 132.130354)"><g><path d="M 1.996094 -2.308594 L 2.003906 -2.308594 L 3.542969 0 L 5.347656 0 L 3.496094 -2.375 C 4.3125 -2.574219 4.96875 -3.296875 4.96875 -4.386719 C 4.96875 -5.613281 4.035156 -6.457031 2.992188 -6.457031 L 0.570312 -6.457031 L 0.570312 0 L 1.996094 0 Z M 2.753906 -5.339844 C 3.171875 -5.339844 3.609375 -4.976562 3.609375 -4.386719 C 3.609375 -3.769531 3.171875 -3.429688 2.753906 -3.429688 L 1.996094 -3.429688 L 1.996094 -5.339844 Z M 2.753906 -5.339844 "/></g></g></g><g fill="#4a044e" fill-opacity="1"><g transform="translate(245.638634, 132.130354)"><g><path d="M 5.554688 -3.238281 C 5.554688 -2.242188 4.652344 -1.328125 3.65625 -1.328125 C 2.660156 -1.328125 1.757812 -2.242188 1.757812 -3.238281 C 1.757812 -4.234375 2.660156 -5.140625 3.65625 -5.140625 C 4.652344 -5.140625 5.554688 -4.234375 5.554688 -3.238281 Z M 6.980469 -3.230469 C 6.980469 -5.015625 5.441406 -6.554688 3.65625 -6.554688 C 1.871094 -6.554688 0.332031 -5.015625 0.332031 -3.230469 C 0.332031 -1.445312 1.871094 0.09375 3.65625 0.09375 C 5.441406 0.09375 6.980469 -1.445312 6.980469 -3.230469 Z M 6.980469 -3.230469 "/></g></g></g><g fill="#4a044e" fill-opacity="1"><g transform="translate(254.850275, 132.130354)"><g><path d="M 5.234375 -2.195312 C 4.96875 -1.625 4.320312 -1.234375 3.65625 -1.234375 C 2.613281 -1.234375 1.777344 -2.128906 1.777344 -3.230469 C 1.777344 -4.320312 2.613281 -5.222656 3.65625 -5.222656 C 4.3125 -5.222656 4.957031 -4.863281 5.222656 -4.285156 L 6.808594 -4.285156 C 6.375 -5.605469 5.128906 -6.554688 3.65625 -6.554688 C 1.824219 -6.554688 0.332031 -5.0625 0.332031 -3.230469 C 0.332031 -1.394531 1.824219 0.09375 3.65625 0.09375 C 5.128906 0.09375 6.382812 -0.863281 6.820312 -2.195312 Z M 5.234375 -2.195312 "/></g></g></g><g fill="#4a044e" fill-opacity="1"><g transform="translate(263.805563, 132.130354)"><g><path d="M 5.234375 -2.195312 C 4.96875 -1.625 4.320312 -1.234375 3.65625 -1.234375 C 2.613281 -1.234375 1.777344 -2.128906 1.777344 -3.230469 C 1.777344 -4.320312 2.613281 -5.222656 3.65625 -5.222656 C 4.3125 -5.222656 4.957031 -4.863281 5.222656 -4.285156 L 6.808594 -4.285156 C 6.375 -5.605469 5.128906 -6.554688 3.65625 -6.554688 C 1.824219 -6.554688 0.332031 -5.0625 0.332031 -3.230469 C 0.332031 -1.394531 1.824219 0.09375 3.65625 0.09375 C 5.128906 0.09375 6.382812 -0.863281 6.820312 -2.195312 Z M 5.234375 -2.195312 "/></g></g></g><g fill="#4a044e" fill-opacity="1"><g transform="translate(272.760849, 132.130354)"><g><path d="M 5.554688 -3.238281 C 5.554688 -2.242188 4.652344 -1.328125 3.65625 -1.328125 C 2.660156 -1.328125 1.757812 -2.242188 1.757812 -3.238281 C 1.757812 -4.234375 2.660156 -5.140625 3.65625 -5.140625 C 4.652344 -5.140625 5.554688 -4.234375 5.554688 -3.238281 Z M 6.980469 -3.230469 C 6.980469 -5.015625 5.441406 -6.554688 3.65625 -6.554688 C 1.871094 -6.554688 0.332031 -5.015625 0.332031 -3.230469 C 0.332031 -1.445312 1.871094 0.09375 3.65625 0.09375 C 5.441406 0.09375 6.980469 -1.445312 6.980469 -3.230469 Z M 6.980469 -3.230469 "/></g></g></g></svg>