<svg xmlns="http://www.w3.org/2000/svg" xmlns:xlink="http://www.w3.org/1999/xlink" width="500" zoomAndPan="magnify" viewBox="0 0 375 149.999998" height="200" preserveAspectRatio="xMidYMid meet" version="1.0"><path fill="#4a044e" d="M 384.886719 -60.144531 L 405.628906 -60.140625 L 416.011719 -78.089844 L 405.640625 -96.085938 L 384.894531 -96.089844 L 376.617188 -81.722656 L 369.027344 -94.871094 L 381.183594 -106.855469 L 377.40625 -125.847656 L 361.664062 -132.191406 L 363.621094 -147.082031 L 376.746094 -136.996094 L 395.910156 -144.929688 L 398.605469 -165.519531 L 382.164062 -178.144531 L 363 -170.210938 L 360.824219 -153.789062 L 348.804688 -163.011719 L 355.449219 -178.738281 L 344.691406 -194.839844 L 327.71875 -194.675781 L 323.828125 -209.179688 L 339.8125 -204.886719 L 354.484375 -219.550781 L 349.09375 -239.601562 L 329.074219 -244.976562 L 314.40625 -230.3125 L 318.679688 -214.308594 L 304.042969 -218.230469 L 304.167969 -235.300781 L 288.066406 -246.0625 L 272.449219 -239.414062 L 263.304688 -251.328125 L 279.714844 -253.476562 L 287.65625 -272.640625 L 275.007812 -289.101562 L 254.453125 -286.40625 L 246.507812 -267.242188 L 256.582031 -254.09375 L 241.5625 -252.117188 L 235.144531 -267.933594 L 216.148438 -271.710938 L 204.261719 -259.59375 L 191.253906 -267.101562 L 205.59375 -275.367188 L 205.597656 -296.113281 L 187.609375 -306.480469 L 169.65625 -296.121094 L 169.648438 -275.378906 L 183.988281 -267.082031 L 170.867188 -259.507812 L 158.882812 -271.667969 L 139.890625 -267.886719 L 133.546875 -252.144531 L 118.65625 -254.101562 L 128.742188 -267.226562 L 120.808594 -286.394531 L 100.21875 -289.089844 L 87.59375 -272.644531 L 95.527344 -253.480469 L 111.949219 -251.304688 L 102.726562 -239.285156 L 87.003906 -245.933594 L 70.898438 -235.171875 L 71.0625 -218.199219 L 56.558594 -214.308594 L 60.851562 -230.292969 L 46.1875 -244.96875 L 26.136719 -239.578125 L 20.761719 -219.558594 L 35.425781 -204.886719 L 51.433594 -209.160156 L 47.511719 -194.527344 L 30.4375 -194.652344 L 19.679688 -178.546875 L 26.328125 -162.929688 L 14.414062 -153.785156 L 12.265625 -170.195312 L -6.898438 -178.140625 L -23.363281 -165.488281 L -20.664062 -144.933594 L -1.503906 -136.992188 L 11.648438 -147.066406 L 13.625 -132.046875 L -2.195312 -125.625 L -5.972656 -106.632812 L 6.148438 -94.746094 L -1.359375 -81.738281 L -9.628906 -96.078125 L -30.371094 -96.082031 L -40.738281 -78.09375 L -30.382812 -60.136719 L -9.640625 -60.132812 L -1.34375 -74.472656 L 6.230469 -61.351562 L -5.925781 -49.367188 L -2.148438 -30.371094 L 13.613281 -24.023438 L 11.664062 -9.125 L -1.488281 -19.222656 L -20.652344 -11.289062 L -23.378906 9.269531 L -6.910156 21.921875 L 12.257812 13.988281 L 14.410156 -2.445312 L 26.453125 6.792969 L 19.808594 22.515625 L 30.566406 38.617188 L 47.5625 38.453125 L 51.460938 52.964844 L 35.445312 48.667969 L 20.773438 63.328125 L 26.121094 83.367188 L 46.179688 88.753906 L 60.855469 74.089844 L 56.550781 58.082031 L 71.214844 62.011719 L 71.089844 79.078125 L 87.191406 89.839844 L 102.828125 83.183594 L 111.984375 95.097656 L 95.542969 97.253906 L 87.601562 116.417969 L 100.210938 132.878906 L 120.804688 130.183594 L 128.746094 111.019531 L 118.648438 97.878906 L 133.695312 95.894531 L 140.113281 111.710938 L 159.109375 115.488281 L 171.007812 103.355469 L 184.023438 110.859375 L 169.660156 119.144531 L 169.65625 139.886719 L 187.605469 150.273438 L 205.601562 139.898438 L 205.605469 119.15625 L 191.246094 110.878906 L 204.390625 103.289062 L 216.371094 115.445312 L 235.363281 111.667969 L 241.707031 95.921875 L 256.59375 97.878906 L 246.515625 111.003906 L 254.449219 130.171875 L 275.007812 132.894531 L 287.660156 116.425781 L 279.726562 97.257812 L 263.289062 95.109375 L 272.53125 83.066406 L 288.253906 89.710938 L 304.355469 78.953125 L 304.191406 61.980469 L 318.695312 58.089844 L 314.402344 74.074219 L 329.066406 88.746094 L 349.105469 83.394531 L 354.492188 63.335938 L 339.828125 48.664062 L 323.816406 52.96875 L 327.71875 38.410156 L 344.820312 38.421875 L 355.574219 22.328125 L 348.929688 6.707031 L 360.839844 -2.433594 L 362.992188 13.972656 L 382.152344 21.917969 L 398.617188 9.304688 L 395.921875 -11.289062 L 376.757812 -19.230469 L 363.609375 -9.128906 L 361.644531 -24.070312 L 377.449219 -30.601562 L 381.226562 -49.589844 L 369.109375 -61.476562 L 376.613281 -74.476562 Z M 386.988281 -92.46875 L 403.546875 -92.464844 L 411.832031 -78.09375 L 403.539062 -63.761719 L 386.976562 -63.765625 L 378.707031 -78.101562 Z M 374.238281 -123.222656 L 377.253906 -108.0625 L 367.15625 -98.113281 L 359.03125 -112.1875 L 361.175781 -128.488281 Z M 301.429688 -108.414062 L 292.027344 -100.957031 L 284.648438 -103.0625 L 273.863281 -129.074219 L 277.597656 -135.785156 L 289.503906 -137.160156 L 300.835938 -124.992188 Z M 283.191406 -62.285156 L 288.539062 -58.042969 L 281.964844 -56.167969 L 269.859375 -26.917969 L 273.175781 -20.953125 L 266.386719 -21.738281 L 244.011719 0.65625 L 244.789062 7.429688 L 238.820312 4.109375 L 209.574219 16.238281 L 207.703125 22.792969 L 203.457031 17.441406 L 171.800781 17.453125 L 167.558594 22.792969 L 165.6875 16.226562 L 136.433594 4.121094 L 130.472656 7.433594 L 131.253906 0.648438 L 108.863281 -21.726562 L 102.085938 -20.949219 L 105.40625 -26.921875 L 93.28125 -56.164062 L 86.722656 -58.039062 L 92.074219 -62.28125 L 92.0625 -93.9375 L 86.722656 -98.179688 L 93.289062 -100.050781 L 105.394531 -129.304688 L 102.082031 -135.265625 L 108.867188 -134.484375 L 131.242188 -156.875 L 130.464844 -163.652344 L 136.4375 -160.332031 L 165.679688 -172.457031 L 167.554688 -179.015625 L 171.796875 -173.664062 L 203.453125 -173.675781 L 207.695312 -179.015625 L 209.570312 -172.449219 L 238.820312 -160.34375 L 244.78125 -163.65625 L 244 -156.871094 L 266.394531 -134.492188 L 273.171875 -135.277344 L 269.847656 -129.300781 L 281.972656 -100.058594 L 288.535156 -98.1875 L 283.179688 -93.941406 Z M 290.90625 -140.964844 L 279.765625 -139.679688 L 285.222656 -149.496094 L 279.300781 -162.46875 L 292.597656 -156.398438 L 300.027344 -163.835938 L 299.953125 -153.160156 L 309.882812 -149.15625 L 300.117188 -145.113281 L 300.640625 -130.515625 Z M 281.167969 -149.65625 L 275.335938 -139.171875 L 267.714844 -138.292969 L 247.796875 -158.195312 L 248.675781 -165.820312 L 259.179688 -171.652344 L 274.269531 -164.761719 Z M 259.019531 -175.703125 L 249.1875 -170.246094 L 250.476562 -181.410156 L 240.039062 -191.128906 L 254.648438 -190.609375 L 258.667969 -200.324219 L 262.679688 -190.429688 L 273.386719 -190.535156 L 265.914062 -183.0625 L 271.972656 -169.789062 Z M 246.671875 -180.007812 L 245.292969 -168.082031 L 238.589844 -164.359375 L 212.574219 -175.125 L 210.46875 -182.503906 L 217.9375 -191.910156 L 234.515625 -191.324219 Z M 216.238281 -195.59375 L 209.246094 -186.789062 L 206.160156 -197.597656 L 192.800781 -202.582031 L 206.496094 -207.691406 L 206.492188 -218.210938 L 213.988281 -210.605469 L 223.835938 -214.796875 L 219.792969 -205.03125 L 230.46875 -195.089844 Z M 203.183594 -194.84375 L 206.476562 -183.300781 L 201.707031 -177.292969 L 173.546875 -177.285156 L 168.777344 -183.296875 L 172.078125 -194.847656 L 187.621094 -200.648438 Z M 169.101562 -197.597656 L 166.011719 -186.789062 L 159.027344 -195.59375 L 144.773438 -195.085938 L 155.472656 -205.050781 L 151.441406 -214.765625 L 161.277344 -210.605469 L 168.773438 -218.246094 L 168.773438 -207.679688 L 182.445312 -202.582031 Z M 157.328125 -191.910156 L 164.785156 -182.503906 L 162.679688 -175.132812 L 136.667969 -164.347656 L 129.960938 -168.078125 L 128.589844 -180.011719 L 140.730469 -191.320312 Z M 124.785156 -181.414062 L 126.066406 -170.242188 L 116.242188 -175.707031 L 103.273438 -169.78125 L 109.339844 -183.082031 L 101.902344 -190.511719 L 112.578125 -190.433594 L 116.582031 -200.367188 L 120.625 -190.601562 L 135.207031 -191.121094 Z M 116.082031 -171.652344 L 126.574219 -165.816406 L 127.449219 -158.199219 L 107.542969 -138.28125 L 99.921875 -139.160156 L 94.089844 -149.660156 L 100.976562 -164.753906 Z M 90.035156 -149.5 L 95.496094 -139.671875 L 84.332031 -140.960938 L 74.613281 -130.523438 L 75.132812 -145.132812 L 65.417969 -149.148438 L 75.308594 -153.164062 L 75.203125 -163.871094 L 82.679688 -156.394531 L 95.949219 -162.457031 Z M 85.734375 -137.152344 L 97.660156 -135.777344 L 101.382812 -129.074219 L 90.613281 -103.054688 L 83.234375 -100.949219 L 73.828125 -108.421875 L 74.417969 -125 Z M 78.953125 -99.726562 L 68.144531 -96.644531 L 63.160156 -83.285156 L 58.046875 -96.980469 L 47.53125 -96.972656 L 55.140625 -104.476562 L 50.953125 -114.316406 L 60.707031 -110.273438 L 70.648438 -120.953125 L 70.144531 -106.71875 Z M 70.894531 -93.664062 L 82.441406 -96.957031 L 88.445312 -92.1875 L 88.453125 -64.03125 L 82.441406 -59.261719 L 70.890625 -62.5625 L 65.089844 -78.105469 Z M 68.140625 -59.582031 L 78.953125 -56.492188 L 70.144531 -49.507812 L 70.652344 -35.257812 L 60.691406 -45.953125 L 50.976562 -41.925781 L 55.136719 -51.769531 L 47.5 -59.257812 L 58.0625 -59.257812 L 63.160156 -72.925781 Z M 73.828125 -47.808594 L 83.234375 -55.269531 L 90.605469 -53.160156 L 101.390625 -27.148438 L 97.660156 -20.441406 L 85.726562 -19.074219 L 74.421875 -31.210938 Z M 84.324219 -15.265625 L 95.496094 -16.546875 L 90.035156 -6.726562 L 95.957031 6.246094 L 82.65625 0.175781 L 75.226562 7.613281 L 75.304688 -3.070312 L 65.382812 -7.066406 L 75.136719 -11.109375 L 74.617188 -25.6875 Z M 94.085938 -6.566406 L 99.921875 -17.054688 L 107.539062 -17.929688 L 127.457031 1.972656 L 126.578125 9.597656 L 116.078125 15.429688 L 100.984375 8.539062 Z M 116.238281 19.480469 L 126.066406 14.023438 L 124.78125 25.1875 L 135.21875 34.90625 L 120.609375 34.386719 L 116.589844 44.101562 L 112.570312 34.199219 L 101.878906 34.304688 L 109.34375 26.839844 L 103.28125 13.566406 Z M 128.585938 23.785156 L 129.960938 11.859375 L 136.664062 8.136719 L 162.683594 18.902344 L 164.789062 26.28125 L 157.320312 35.691406 L 140.738281 35.101562 Z M 159.019531 39.371094 L 166.011719 30.566406 L 169.09375 41.375 L 182.457031 46.359375 L 168.761719 51.46875 L 168.765625 61.980469 L 161.269531 54.375 L 151.421875 58.566406 L 155.464844 48.808594 L 144.785156 38.867188 Z M 172.074219 38.621094 L 168.78125 27.078125 L 173.550781 21.074219 L 201.710938 21.0625 L 206.480469 27.078125 L 203.179688 38.625 L 187.636719 44.425781 Z M 206.15625 41.378906 L 209.246094 30.566406 L 216.230469 39.371094 L 230.484375 38.863281 L 219.785156 48.828125 L 223.8125 58.535156 L 213.976562 54.375 L 206.484375 62.015625 L 206.484375 51.457031 L 192.8125 46.359375 Z M 217.929688 35.691406 L 210.472656 26.285156 L 212.578125 18.910156 L 238.589844 8.125 L 245.296875 11.855469 L 246.667969 23.789062 L 234.527344 35.097656 Z M 250.472656 25.191406 L 249.191406 14.019531 L 259.011719 19.484375 L 271.96875 13.566406 L 265.914062 26.832031 L 273.835938 34.75 L 262.457031 34.738281 L 258.671875 44.132812 L 254.632812 34.378906 L 240.050781 34.898438 Z M 259.175781 15.429688 L 248.683594 9.597656 L 247.808594 1.976562 L 267.710938 -17.941406 L 275.34375 -17.058594 L 281.167969 -6.585938 L 274.265625 8.539062 Z M 285.222656 -6.75 L 279.769531 -16.550781 L 290.925781 -15.261719 L 300.632812 -25.6875 L 300.117188 -11.117188 L 310.460938 -6.832031 L 299.949219 -2.484375 L 300.046875 7.640625 L 292.582031 0.175781 L 279.292969 6.242188 Z M 289.523438 -19.070312 L 277.605469 -20.445312 L 273.875 -27.148438 L 284.644531 -53.167969 L 292.03125 -55.273438 L 301.417969 -47.828125 L 300.828125 -31.210938 Z M 296.316406 -56.496094 L 307.113281 -59.578125 L 312.09375 -72.921875 L 317.191406 -59.261719 L 327.734375 -59.261719 L 320.117188 -51.753906 L 324.308594 -41.902344 L 314.546875 -45.945312 L 304.59375 -35.257812 L 305.101562 -49.527344 Z M 304.363281 -62.558594 L 292.824219 -59.265625 L 286.8125 -64.035156 L 286.800781 -92.191406 L 292.820312 -96.964844 L 304.34375 -93.679688 L 310.160156 -78.101562 Z M 307.097656 -96.660156 L 296.3125 -99.734375 L 305.113281 -106.714844 L 304.605469 -120.949219 L 314.542969 -110.277344 L 324.28125 -114.3125 L 320.117188 -104.460938 L 327.761719 -96.964844 L 317.199219 -96.964844 L 312.09375 -83.277344 Z M 324.414062 -105.324219 L 329.046875 -116.285156 L 347.960938 -124.121094 L 355.28125 -111.441406 L 353.378906 -96.964844 L 332.933594 -96.964844 Z M 349.507812 -128.679688 L 331.054688 -121.039062 L 338.132812 -137.773438 L 357.707031 -129.886719 L 356.054688 -117.339844 Z M 326.289062 -119.0625 L 315.476562 -114.585938 L 304.40625 -126.472656 L 303.824219 -142.730469 L 314.675781 -147.226562 L 334.773438 -139.128906 Z M 319.453125 -149.203125 L 337.863281 -156.828125 L 334.484375 -169.4375 L 344.378906 -161.847656 L 336.183594 -142.460938 Z M 333.542969 -158.957031 L 314.660156 -151.136719 L 303.589844 -155.597656 L 303.675781 -167.484375 L 318.148438 -181.972656 L 329.765625 -173.058594 Z M 317.832031 -186.78125 L 303.714844 -172.648438 L 303.84375 -190.828125 L 324.949219 -191.03125 L 328.222656 -178.804688 Z M 300.066406 -168.996094 L 291.8125 -160.734375 L 277.003906 -167.496094 L 270.25 -182.277344 L 278.554688 -190.582031 L 300.222656 -190.789062 Z M 282.214844 -194.238281 L 296.304688 -208.332031 L 288.355469 -218.683594 L 300.402344 -215.457031 L 300.25 -194.414062 Z M 291.496094 -208.644531 L 277.042969 -194.191406 L 265.109375 -194.074219 L 260.640625 -205.09375 L 268.464844 -224.015625 L 282.609375 -220.226562 Z M 266.335938 -228.335938 L 258.699219 -209.875 L 251.863281 -226.722656 L 271.28125 -234.984375 L 278.988281 -224.945312 Z M 256.726562 -205.105469 L 252.265625 -194.316406 L 235.996094 -194.894531 L 224.097656 -205.96875 L 228.59375 -216.820312 L 248.53125 -225.304688 Z M 230.574219 -221.59375 L 238.199219 -240.007812 L 226.894531 -246.53125 L 239.257812 -248.160156 L 247.171875 -228.65625 Z M 233.640625 -238.457031 L 225.816406 -219.570312 L 214.835938 -214.898438 L 206.488281 -223.371094 L 206.476562 -243.84375 L 220.992188 -245.753906 Z M 202.855469 -247.019531 L 202.867188 -227.046875 L 190.105469 -239.992188 L 204.882812 -255.054688 L 215.84375 -248.730469 Z M 202.871094 -221.886719 L 202.875 -210.207031 L 187.621094 -204.511719 L 172.394531 -210.191406 L 172.394531 -221.9375 L 187.570312 -237.40625 Z M 172.394531 -227.109375 L 172.394531 -247.035156 L 159.453125 -248.738281 L 170.253906 -254.972656 L 185.027344 -239.984375 Z M 168.773438 -243.859375 L 168.773438 -223.417969 L 160.421875 -214.898438 L 149.464844 -219.53125 L 141.621094 -238.441406 L 154.300781 -245.761719 Z M 137.058594 -239.988281 L 144.710938 -221.539062 L 127.96875 -228.617188 L 135.855469 -248.1875 L 148.402344 -246.539062 Z M 146.6875 -216.773438 L 151.164062 -205.984375 L 139.25 -194.886719 L 123.007812 -194.308594 L 118.515625 -205.160156 L 126.613281 -225.257812 Z M 116.535156 -209.9375 L 108.910156 -228.347656 L 96.300781 -224.964844 L 103.894531 -234.859375 L 123.277344 -226.667969 Z M 106.78125 -224.027344 L 114.601562 -205.140625 L 110.140625 -194.070312 L 98.253906 -194.15625 L 83.765625 -208.628906 L 92.679688 -220.246094 Z M 78.957031 -208.316406 L 93.09375 -194.195312 L 74.910156 -194.328125 L 74.707031 -215.429688 L 86.933594 -218.707031 Z M 96.742188 -190.550781 L 105.003906 -182.296875 L 98.246094 -167.484375 L 83.460938 -160.734375 L 75.152344 -169.042969 L 74.945312 -190.707031 Z M 71.5 -172.699219 L 57.410156 -186.785156 L 47.054688 -178.839844 L 50.28125 -190.886719 L 71.328125 -190.734375 Z M 57.09375 -181.980469 L 71.546875 -167.527344 L 71.660156 -155.59375 L 60.644531 -151.121094 L 41.722656 -158.949219 L 45.511719 -173.089844 Z M 55.863281 -149.183594 L 39.019531 -142.347656 L 30.757812 -161.765625 L 40.792969 -169.46875 L 37.402344 -156.816406 Z M 60.632812 -147.210938 L 71.421875 -142.746094 L 70.84375 -126.476562 L 59.773438 -114.582031 L 48.925781 -119.074219 L 40.441406 -139.015625 Z M 44.148438 -121.050781 L 25.734375 -128.679688 L 19.207031 -117.375 L 17.582031 -129.742188 L 37.085938 -137.65625 Z M 27.28125 -124.121094 L 46.175781 -116.296875 L 50.84375 -105.324219 L 42.371094 -96.96875 L 21.894531 -96.960938 L 19.984375 -111.476562 Z M 18.71875 -93.339844 L 38.695312 -93.347656 L 25.75 -80.589844 L 10.683594 -95.363281 L 17.011719 -106.324219 Z M 43.855469 -93.351562 L 55.535156 -93.359375 L 61.226562 -78.105469 L 55.546875 -62.878906 L 43.808594 -62.878906 L 28.335938 -78.054688 Z M 38.636719 -62.878906 L 18.703125 -62.878906 L 17.007812 -49.925781 L 10.765625 -60.738281 L 25.753906 -75.511719 Z M 21.882812 -59.257812 L 42.328125 -59.257812 L 50.839844 -50.90625 L 46.207031 -39.945312 L 27.296875 -32.101562 L 19.984375 -44.769531 Z M 25.75 -27.539062 L 44.199219 -35.195312 L 37.125 -18.453125 L 17.570312 -26.332031 L 19.210938 -38.867188 Z M 48.964844 -37.171875 L 59.753906 -41.644531 L 70.851562 -29.734375 L 71.429688 -13.492188 L 60.589844 -9 L 40.484375 -17.101562 Z M 55.8125 -7.023438 L 37.390625 0.605469 L 40.78125 13.226562 L 30.875 5.625 L 39.070312 -13.765625 Z M 41.710938 2.738281 L 60.605469 -5.089844 L 71.667969 -0.632812 L 71.582031 11.265625 L 57.109375 25.753906 L 45.503906 16.851562 Z M 57.425781 30.558594 L 71.542969 16.425781 L 71.410156 34.601562 L 50.328125 34.804688 L 47.046875 22.597656 Z M 75.191406 12.773438 L 83.441406 4.511719 L 98.253906 11.273438 L 105.003906 26.058594 L 96.707031 34.355469 L 75.03125 34.566406 Z M 93.050781 38.011719 L 78.953125 52.109375 L 86.914062 62.46875 L 74.855469 59.238281 L 75.007812 38.1875 Z M 83.757812 52.421875 L 98.222656 37.960938 L 110.144531 37.847656 L 114.617188 48.871094 L 106.789062 67.792969 L 92.664062 64.011719 Z M 108.921875 72.113281 L 116.558594 53.652344 L 123.390625 70.496094 L 103.992188 78.753906 L 96.289062 68.730469 Z M 118.527344 48.882812 L 122.992188 38.09375 L 139.261719 38.671875 L 151.15625 49.746094 L 146.664062 60.589844 L 126.722656 69.078125 Z M 144.6875 65.363281 L 137.058594 83.785156 L 148.378906 90.308594 L 136 91.941406 L 128.085938 72.429688 Z M 141.621094 82.234375 L 149.445312 63.339844 L 160.417969 58.667969 L 168.769531 67.140625 L 168.777344 87.621094 L 154.277344 89.53125 Z M 172.402344 90.796875 L 172.390625 70.816406 L 185.152344 83.765625 L 170.386719 98.820312 L 159.4375 92.507812 Z M 172.386719 65.65625 L 172.382812 53.984375 L 187.632812 48.289062 L 202.863281 53.96875 L 202.863281 65.707031 L 187.6875 81.179688 Z M 202.863281 70.875 L 202.863281 90.8125 L 215.808594 92.515625 L 205.007812 98.753906 L 190.230469 83.757812 Z M 206.484375 87.636719 L 206.484375 67.183594 L 214.832031 58.671875 L 225.789062 63.304688 L 233.636719 82.222656 L 220.960938 89.542969 Z M 238.199219 83.769531 L 230.542969 65.3125 L 247.289062 72.390625 L 239.402344 91.96875 L 226.859375 90.316406 Z M 228.566406 60.546875 L 224.09375 49.761719 L 236.007812 38.667969 L 252.246094 38.085938 L 256.738281 48.929688 L 248.640625 69.03125 Z M 258.71875 53.707031 L 266.347656 72.125 L 278.957031 68.742188 L 271.363281 78.636719 L 251.976562 70.441406 Z M 268.476562 67.804688 L 260.652344 48.914062 L 264.902344 38.363281 L 277.457031 38.371094 L 291.492188 52.40625 L 282.578125 64.023438 Z M 296.296875 52.09375 L 282.582031 38.378906 L 300.34375 38.390625 L 300.546875 59.207031 L 288.324219 62.484375 Z M 278.957031 34.753906 L 270.253906 26.046875 L 276.996094 11.273438 L 291.796875 4.515625 L 300.097656 12.8125 L 300.308594 34.769531 Z M 303.75 16.46875 L 317.847656 30.566406 L 328.203125 22.617188 L 324.941406 34.785156 L 303.929688 34.769531 Z M 318.164062 25.757812 L 303.703125 11.296875 L 303.589844 -0.0742188 L 315.195312 -4.871094 L 333.535156 2.726562 L 329.742188 16.871094 Z M 319.929688 -6.828125 L 336.347656 -13.613281 L 344.5 5.542969 L 334.460938 13.246094 L 337.851562 0.597656 Z M 315.195312 -8.789062 L 303.824219 -13.5 L 304.398438 -29.730469 L 315.484375 -41.640625 L 326.335938 -37.144531 L 334.929688 -16.945312 Z M 331.113281 -35.167969 L 349.523438 -27.539062 L 356.050781 -38.847656 L 357.695312 -26.355469 L 338.277344 -18.328125 Z M 347.976562 -32.101562 L 329.085938 -39.925781 L 324.414062 -50.90625 L 332.894531 -59.261719 L 353.363281 -59.261719 L 355.273438 -44.746094 Z M 356.539062 -62.882812 L 336.566406 -62.882812 L 349.507812 -75.636719 L 364.574219 -60.855469 L 358.246094 -49.894531 Z M 331.410156 -62.882812 L 319.703125 -62.882812 L 314.023438 -78.101562 L 319.710938 -93.34375 L 331.453125 -93.34375 L 346.921875 -78.171875 Z M 336.625 -93.34375 L 356.554688 -93.34375 L 358.253906 -106.289062 L 364.492188 -95.488281 L 349.5 -80.714844 Z M 366.316406 -167.667969 L 381.617188 -174 L 394.746094 -163.917969 L 392.59375 -147.476562 L 377.292969 -141.144531 L 364.136719 -151.25 Z M 360.304688 -149.625 L 358.195312 -133.59375 L 339.542969 -141.109375 L 347.347656 -159.566406 Z M 342.769531 -191.199219 L 351.355469 -178.351562 L 345.835938 -165.292969 L 332.945312 -175.183594 L 328.6875 -191.066406 Z M 330.15625 -240.9375 L 346.140625 -236.648438 L 350.445312 -220.632812 L 338.734375 -208.929688 L 322.714844 -213.230469 L 318.441406 -229.230469 Z M 319.792969 -210.261719 L 323.980469 -194.640625 L 303.871094 -194.449219 L 304.015625 -214.488281 Z M 287.679688 -241.960938 L 300.53125 -233.375 L 300.429688 -219.199219 L 284.734375 -223.40625 L 274.722656 -236.449219 Z M 256.996094 -283.085938 L 273.40625 -285.238281 L 283.511719 -272.09375 L 277.171875 -256.796875 L 260.722656 -254.640625 L 250.652344 -267.785156 Z M 259.160156 -250.777344 L 269.007812 -237.949219 L 250.503906 -230.078125 L 242.96875 -248.648438 Z M 217.363281 -267.777344 L 232.519531 -264.761719 L 237.851562 -251.625 L 221.742188 -249.503906 L 207.5 -257.722656 Z M 173.273438 -294.03125 L 187.613281 -302.300781 L 201.980469 -294.019531 L 201.976562 -277.460938 L 187.605469 -269.175781 L 173.269531 -277.46875 Z M 187.636719 -265.007812 L 201.644531 -256.925781 L 187.5625 -242.570312 L 173.492188 -256.84375 Z M 142.515625 -264.71875 L 157.675781 -267.734375 L 167.628906 -257.636719 L 153.554688 -249.511719 L 137.25 -251.65625 Z M 91.738281 -272.101562 L 101.820312 -285.226562 L 118.261719 -283.074219 L 124.59375 -267.773438 L 114.488281 -254.621094 L 98.074219 -256.796875 Z M 116.113281 -250.785156 L 132.148438 -248.675781 L 124.632812 -230.027344 L 106.171875 -237.828125 Z M 74.539062 -233.25 L 87.390625 -241.839844 L 100.449219 -236.316406 L 90.554688 -223.425781 L 74.675781 -219.167969 Z M 24.800781 -220.640625 L 29.089844 -236.625 L 45.105469 -240.929688 L 56.8125 -229.214844 L 52.507812 -213.195312 L 36.511719 -208.921875 Z M 55.476562 -210.273438 L 71.097656 -214.460938 L 71.289062 -194.355469 L 51.25 -194.5 Z M 23.777344 -178.164062 L 32.363281 -191.015625 L 46.539062 -190.914062 L 42.335938 -175.214844 L 29.292969 -165.207031 Z M -2.046875 -141.136719 L -17.347656 -147.476562 L -19.5 -163.890625 L -6.351562 -173.996094 L 8.945312 -167.652344 L 11.101562 -151.207031 Z M 14.960938 -149.640625 L 27.792969 -159.488281 L 35.667969 -140.988281 L 17.09375 -133.449219 Z M -2.039062 -107.84375 L 0.976562 -123.003906 L 14.113281 -128.335938 L 16.234375 -112.222656 L 8.015625 -97.984375 Z M -11.726562 -63.753906 L -28.289062 -63.757812 L -36.558594 -78.09375 L -28.28125 -92.460938 L -11.71875 -92.457031 L -3.4375 -78.085938 Z M 0.730469 -78.121094 L 8.816406 -92.128906 L 23.171875 -78.046875 L 8.894531 -63.976562 Z M 1.019531 -33 L -1.996094 -48.160156 L 8.101562 -58.109375 L 16.234375 -44.023438 L 14.101562 -27.730469 Z M 8.941406 11.445312 L -6.359375 17.777344 L -19.511719 7.671875 L -17.335938 -8.742188 L -2.035156 -15.078125 L 11.09375 -4.996094 Z M 14.980469 -6.570312 L 17.082031 -22.625 L 35.714844 -15.117188 L 27.910156 3.347656 Z M 32.488281 34.980469 L 23.902344 22.128906 L 29.421875 9.070312 L 42.328125 18.972656 L 46.589844 34.839844 Z M 45.101562 84.714844 L 29.082031 80.414062 L 24.808594 64.414062 L 36.523438 52.707031 L 52.507812 56.996094 L 56.8125 73.007812 Z M 55.5 54.054688 L 51.300781 38.417969 L 71.386719 38.222656 L 71.242188 58.269531 Z M 87.574219 85.742188 L 74.722656 77.152344 L 74.828125 62.980469 L 90.539062 67.1875 L 100.550781 80.21875 Z M 118.261719 126.863281 L 101.8125 129.019531 L 91.746094 115.875 L 98.085938 100.574219 L 114.5 98.417969 L 124.601562 111.566406 Z M 116.136719 94.554688 L 106.269531 81.71875 L 124.753906 73.851562 L 132.292969 92.429688 Z M 157.894531 111.558594 L 142.734375 108.542969 L 137.40625 95.40625 L 153.535156 93.28125 L 167.769531 101.488281 Z M 201.980469 137.808594 L 187.613281 146.089844 L 173.277344 137.800781 L 173.28125 121.238281 L 187.621094 112.964844 L 201.988281 121.246094 Z M 187.65625 108.773438 L 173.628906 100.6875 L 187.695312 86.34375 L 201.765625 100.625 Z M 232.738281 108.5 L 217.582031 111.511719 L 207.632812 101.417969 L 221.703125 93.292969 L 238 95.433594 Z M 277.183594 100.578125 L 283.519531 115.878906 L 273.410156 129.03125 L 256.996094 126.855469 L 250.660156 111.550781 L 260.742188 98.425781 Z M 259.144531 94.5625 L 243.109375 92.453125 L 250.625 73.800781 L 269.085938 81.605469 Z M 300.71875 77.03125 L 287.867188 85.617188 L 274.808594 80.09375 L 284.703125 67.203125 L 300.582031 62.945312 Z M 338.75 52.703125 L 350.457031 64.417969 L 346.152344 80.4375 L 330.152344 84.707031 L 318.445312 72.992188 L 322.734375 57.007812 Z M 319.78125 54.050781 L 304.15625 58.238281 L 303.964844 38.390625 L 323.972656 38.40625 Z M 351.480469 21.941406 L 342.890625 34.800781 L 328.6875 34.789062 L 332.921875 18.996094 L 345.964844 8.984375 Z M 377.304688 -15.085938 L 392.605469 -8.742188 L 394.757812 7.703125 L 381.613281 17.773438 L 366.3125 11.429688 L 364.160156 -4.980469 Z M 360.296875 -6.582031 L 347.46875 3.265625 L 339.695312 -14.996094 L 358.183594 -22.640625 Z M 377.296875 -48.378906 L 374.277344 -33.210938 L 361.15625 -27.785156 L 359.023438 -44 L 367.242188 -58.238281 Z M 366.441406 -64.09375 L 352.085938 -78.179688 L 366.359375 -92.246094 L 374.527344 -78.101562 Z M 366.441406 -64.09375 " fill-opacity="1" fill-rule="nonzero"/></svg>