<svg xmlns="http://www.w3.org/2000/svg" xmlns:xlink="http://www.w3.org/1999/xlink" width="1000" zoomAndPan="magnify" viewBox="0 0 750 749.999995" height="1000" preserveAspectRatio="xMidYMid meet" version="1.0"><defs><clipPath id="607070ef2e"><path d="M 0 0 L 748.019531 0 L 748.019531 748.019531 L 0 748.019531 Z M 0 0 " clip-rule="nonzero"/></clipPath></defs><g clip-path="url(#607070ef2e)"><path fill="#4a044e" d="M 656.28125 127.832031 L 717.417969 127.847656 L 748.027344 74.9375 L 717.453125 21.898438 L 656.308594 21.882812 L 631.90625 64.226562 L 609.535156 25.476562 L 645.375 -9.847656 L 634.238281 -65.828125 L 587.835938 -84.527344 L 593.605469 -128.414062 L 632.289062 -98.6875 L 688.78125 -122.074219 L 696.722656 -182.753906 L 648.261719 -219.96875 L 591.773438 -196.585938 L 585.359375 -148.179688 L 549.929688 -175.367188 L 569.523438 -221.714844 L 537.808594 -269.175781 L 487.78125 -268.695312 L 476.320312 -311.449219 L 523.429688 -298.792969 L 566.675781 -342.015625 L 550.792969 -401.113281 L 491.78125 -416.949219 L 448.542969 -373.738281 L 461.140625 -326.558594 L 418.003906 -338.121094 L 418.371094 -388.4375 L 370.910156 -420.148438 L 324.875 -400.558594 L 297.921875 -435.671875 L 346.292969 -442.007812 L 369.707031 -498.492188 L 332.417969 -547.011719 L 271.835938 -539.0625 L 248.425781 -482.582031 L 278.117188 -443.820312 L 233.84375 -437.996094 L 214.921875 -484.621094 L 158.9375 -495.753906 L 123.902344 -460.035156 L 85.566406 -482.164062 L 127.828125 -506.527344 L 127.84375 -567.671875 L 74.824219 -598.230469 L 21.898438 -567.699219 L 21.882812 -506.5625 L 64.148438 -482.109375 L 25.476562 -459.785156 L -9.847656 -495.621094 L -65.828125 -484.484375 L -84.53125 -438.078125 L -128.414062 -443.851562 L -98.691406 -482.535156 L -122.078125 -539.027344 L -182.757812 -546.96875 L -219.96875 -498.507812 L -196.589844 -442.019531 L -148.183594 -435.605469 L -175.367188 -400.179688 L -221.714844 -419.769531 L -269.175781 -388.054688 L -268.695312 -338.027344 L -311.449219 -326.566406 L -298.792969 -373.675781 L -342.015625 -416.929688 L -401.117188 -401.046875 L -416.953125 -342.035156 L -373.734375 -298.792969 L -326.558594 -311.390625 L -338.117188 -268.253906 L -388.433594 -268.621094 L -420.144531 -221.15625 L -400.550781 -175.125 L -435.671875 -148.171875 L -442.003906 -196.542969 L -498.488281 -219.957031 L -547.007812 -182.664062 L -539.058594 -122.085938 L -482.582031 -98.671875 L -443.820312 -128.367188 L -437.992188 -84.09375 L -484.617188 -65.175781 L -495.753906 -9.191406 L -460.035156 25.84375 L -482.164062 64.179688 L -506.527344 21.917969 L -567.671875 21.902344 L -598.230469 74.929688 L -567.699219 127.855469 L -506.5625 127.871094 L -482.113281 85.601562 L -459.785156 124.273438 L -495.621094 159.597656 L -484.484375 215.582031 L -438.023438 234.300781 L -443.777344 278.210938 L -482.535156 248.445312 L -539.023438 271.828125 L -547.054688 332.425781 L -498.515625 369.722656 L -442.019531 346.339844 L -435.675781 297.898438 L -400.183594 325.128906 L -419.769531 371.46875 L -388.054688 418.929688 L -337.964844 418.445312 L -326.472656 461.214844 L -373.679688 448.546875 L -416.921875 491.765625 L -401.15625 550.820312 L -342.035156 566.707031 L -298.785156 523.480469 L -311.464844 476.304688 L -268.253906 487.878906 L -268.621094 538.1875 L -221.15625 569.898438 L -175.066406 550.28125 L -148.082031 585.398438 L -196.542969 591.757812 L -219.953125 648.238281 L -182.78125 696.761719 L -122.085938 688.8125 L -98.671875 632.332031 L -128.441406 593.597656 L -84.085938 587.753906 L -65.171875 634.367188 L -9.1875 645.503906 L 25.886719 609.742188 L 64.253906 631.859375 L 21.917969 656.28125 L 21.898438 717.417969 L 74.808594 748.027344 L 127.847656 717.453125 L 127.863281 656.308594 L 85.535156 631.914062 L 124.28125 609.542969 L 159.59375 645.375 L 215.578125 634.238281 L 234.273438 587.832031 L 278.148438 593.601562 L 248.441406 632.289062 L 271.824219 688.777344 L 332.421875 696.808594 L 369.71875 648.269531 L 346.332031 591.773438 L 297.878906 585.429688 L 325.117188 549.933594 L 371.464844 569.527344 L 418.921875 537.8125 L 418.4375 487.785156 L 461.183594 476.328125 L 448.539062 523.4375 L 491.757812 566.679688 L 550.816406 550.910156 L 566.703125 491.789062 L 523.476562 448.542969 L 476.28125 461.226562 L 487.78125 418.316406 L 538.195312 418.355469 L 569.890625 370.910156 L 550.300781 324.875 L 585.402344 297.933594 L 591.753906 346.292969 L 648.230469 369.703125 L 696.753906 332.535156 L 688.804688 271.835938 L 632.324219 248.425781 L 593.574219 278.203125 L 587.777344 234.160156 L 634.363281 214.902344 L 645.496094 158.941406 L 609.777344 123.910156 L 631.898438 85.582031 Z M 662.476562 32.554688 L 711.285156 32.566406 L 735.703125 74.921875 L 711.261719 117.167969 L 662.445312 117.160156 L 638.070312 74.902344 L 638.070312 74.898438 Z M 624.898438 -58.089844 L 633.785156 -13.410156 L 604.023438 15.921875 L 580.078125 -25.558594 L 586.398438 -73.609375 Z M 410.296875 -14.4375 L 382.585938 7.539062 L 360.84375 1.335938 L 329.054688 -75.332031 L 340.058594 -95.121094 L 375.148438 -99.167969 L 408.550781 -63.308594 Z M 356.546875 121.527344 L 372.300781 134.023438 L 352.929688 139.546875 L 317.253906 225.769531 L 327.027344 243.34375 L 307.011719 241.035156 L 241.058594 307.035156 L 243.351562 327.007812 L 225.753906 317.222656 L 139.5625 352.960938 L 134.039062 372.289062 L 121.527344 356.515625 L 28.222656 356.550781 L 15.71875 372.289062 L 10.199219 352.929688 L -76.015625 317.253906 L -93.589844 327.015625 L -91.28125 307.015625 L -157.285156 241.0625 L -177.257812 243.351562 L -167.472656 225.757812 L -203.210938 139.566406 L -222.539062 134.042969 L -206.765625 121.53125 L -206.800781 28.226562 L -222.542969 15.722656 L -203.183594 10.203125 L -167.507812 -76.015625 L -177.269531 -93.589844 L -157.269531 -91.28125 L -91.316406 -157.28125 L -93.605469 -177.253906 L -76.011719 -167.464844 L 10.179688 -203.207031 L 15.703125 -222.53125 L 28.214844 -206.761719 L 121.519531 -206.792969 L 134.023438 -222.539062 L 139.546875 -203.175781 L 225.761719 -167.5 L 243.335938 -177.261719 L 241.027344 -157.265625 L 307.03125 -91.308594 L 327.007812 -93.613281 L 317.214844 -76.007812 L 352.957031 10.183594 L 372.292969 15.699219 L 356.507812 28.21875 Z M 379.28125 -110.386719 L 346.441406 -106.597656 L 362.535156 -135.527344 L 345.074219 -173.761719 L 384.273438 -155.867188 L 406.171875 -177.792969 L 405.945312 -146.324219 L 435.214844 -134.53125 L 406.433594 -122.609375 L 407.972656 -79.585938 Z M 350.582031 -136 L 333.394531 -105.09375 L 310.929688 -102.503906 L 252.222656 -161.171875 L 254.816406 -183.640625 L 285.765625 -200.832031 L 330.25 -180.527344 Z M 285.296875 -212.773438 L 256.320312 -196.683594 L 260.117188 -229.59375 L 229.355469 -258.234375 L 272.414062 -256.707031 L 284.257812 -285.339844 L 296.089844 -256.179688 L 327.640625 -256.484375 L 305.617188 -234.460938 L 323.480469 -195.34375 Z M 248.898438 -225.457031 L 244.84375 -190.308594 L 225.085938 -179.332031 L 148.398438 -211.070312 L 142.191406 -232.824219 L 164.207031 -260.546875 L 213.078125 -258.8125 Z M 159.199219 -271.402344 L 138.589844 -245.449219 L 129.5 -277.304688 L 90.121094 -291.996094 L 130.488281 -307.0625 L 130.472656 -338.0625 L 152.566406 -315.644531 L 181.59375 -327.996094 L 169.675781 -299.222656 L 201.148438 -269.917969 Z M 120.71875 -269.191406 L 130.425781 -235.164062 L 116.371094 -217.460938 L 33.371094 -217.433594 L 19.3125 -235.15625 L 29.042969 -269.195312 L 74.855469 -286.292969 Z M 20.265625 -277.3125 L 11.160156 -245.445312 L -9.425781 -271.402344 L -51.433594 -269.902344 L -19.90625 -299.269531 L -31.78125 -327.902344 L -2.789062 -315.648438 L 19.300781 -338.171875 L 19.300781 -307.023438 L 59.59375 -291.992188 Z M -14.4375 -260.546875 L 7.546875 -232.824219 L 1.335938 -211.09375 L -75.332031 -179.304688 L -95.101562 -190.300781 L -99.136719 -225.46875 L -63.355469 -258.796875 Z M -110.355469 -229.605469 L -106.574219 -196.679688 L -135.527344 -212.78125 L -173.761719 -195.320312 L -155.871094 -234.519531 L -177.792969 -256.421875 L -146.332031 -256.195312 L -134.535156 -285.46875 L -122.613281 -256.683594 L -79.636719 -258.21875 Z M -136 -200.832031 L -105.078125 -183.632812 L -102.5 -161.179688 L -161.167969 -102.472656 L -183.636719 -105.066406 L -200.828125 -136.015625 L -180.523438 -180.5 Z M -212.773438 -135.542969 L -196.679688 -106.570312 L -229.589844 -110.367188 L -258.234375 -79.605469 L -256.703125 -122.667969 L -285.339844 -134.507812 L -256.1875 -146.335938 L -256.488281 -177.898438 L -234.457031 -155.867188 L -195.339844 -173.726562 Z M -225.457031 -99.148438 L -190.308594 -95.09375 L -179.332031 -75.332031 L -211.070312 1.355469 L -232.820312 7.558594 L -260.546875 -14.460938 L -258.8125 -63.324219 Z M -245.445312 11.160156 L -277.304688 20.25 L -291.992188 59.628906 L -307.058594 19.261719 L -338.058594 19.277344 L -315.628906 -2.832031 L -327.972656 -31.839844 L -299.214844 -19.925781 L -269.914062 -51.398438 L -271.402344 -9.449219 Z M -269.191406 29.03125 L -235.164062 19.328125 L -217.464844 33.382812 L -217.433594 116.378906 L -235.160156 130.4375 L -269.199219 120.707031 L -286.300781 74.894531 Z M -277.3125 129.484375 L -245.445312 138.59375 L -271.402344 159.179688 L -269.902344 201.1875 L -299.269531 169.65625 L -327.902344 181.535156 L -315.640625 152.519531 L -338.144531 130.449219 L -307.019531 130.449219 L -291.992188 90.15625 Z M -260.546875 164.191406 L -232.824219 142.203125 L -211.09375 148.414062 L -179.304688 225.082031 L -190.300781 244.851562 L -225.46875 248.890625 L -258.796875 213.105469 Z M -229.605469 260.105469 L -196.679688 256.328125 L -212.78125 285.28125 L -195.324219 323.515625 L -234.519531 305.625 L -256.421875 327.546875 L -256.191406 296.054688 L -285.433594 284.273438 L -256.683594 272.363281 L -258.21875 229.390625 Z M -200.832031 285.753906 L -183.632812 254.832031 L -161.179688 252.253906 L -102.472656 310.917969 L -105.066406 333.390625 L -136.015625 350.578125 L -180.5 330.273438 Z M -135.542969 362.527344 L -106.570312 346.433594 L -110.367188 379.34375 L -79.605469 407.988281 L -122.667969 406.457031 L -134.507812 435.09375 L -146.351562 405.910156 L -177.871094 406.214844 L -155.867188 384.214844 L -173.730469 345.09375 Z M -99.148438 375.207031 L -95.09375 340.058594 L -75.335938 329.085938 L 1.355469 360.820312 L 7.558594 382.574219 L -14.460938 410.296875 L -63.328125 408.5625 Z M -9.449219 421.152344 L 11.160156 395.195312 L 20.25 427.054688 L 59.628906 441.746094 L 19.261719 456.8125 L 19.277344 487.785156 L -2.816406 465.371094 L -31.839844 477.722656 L -19.929688 448.964844 L -51.402344 419.664062 Z M 29.03125 418.941406 L 19.328125 384.914062 L 33.382812 367.214844 L 116.378906 367.1875 L 130.4375 384.914062 L 120.707031 418.953125 L 74.894531 436.050781 Z M 129.484375 427.0625 L 138.59375 395.195312 L 159.179688 421.152344 L 201.1875 419.65625 L 169.65625 449.023438 L 181.527344 477.636719 L 152.535156 465.378906 L 130.449219 487.894531 L 130.449219 456.769531 L 90.15625 441.742188 Z M 164.191406 410.296875 L 142.203125 382.574219 L 148.414062 360.84375 L 225.082031 329.054688 L 244.851562 340.050781 L 248.890625 375.222656 L 213.109375 408.550781 Z M 260.105469 379.359375 L 256.328125 346.429688 L 285.277344 362.535156 L 323.464844 345.09375 L 305.625 384.1875 L 328.960938 407.523438 L 295.433594 407.5 L 284.277344 435.1875 L 272.367188 406.433594 L 229.390625 407.964844 Z M 285.753906 350.585938 L 254.832031 333.386719 L 252.253906 310.933594 L 310.917969 252.226562 L 333.414062 254.824219 L 350.582031 285.691406 L 330.234375 330.273438 Z M 362.527344 285.214844 L 346.460938 256.324219 L 379.34375 260.117188 L 407.953125 229.394531 L 406.429688 272.339844 L 436.921875 284.972656 L 405.933594 297.78125 L 406.222656 327.628906 L 384.214844 305.621094 L 345.054688 323.503906 Z M 375.207031 248.898438 L 340.078125 244.847656 L 329.085938 225.085938 L 360.820312 148.394531 L 382.59375 142.183594 L 410.269531 164.132812 L 408.527344 213.113281 Z M 395.222656 138.582031 L 427.054688 129.503906 L 441.730469 90.167969 L 456.753906 130.433594 L 487.832031 130.433594 L 465.378906 152.558594 L 477.738281 181.59375 L 448.96875 169.675781 L 419.628906 201.1875 L 421.125 159.125 Z M 418.941406 120.71875 L 384.929688 130.417969 L 367.214844 116.367188 L 367.183594 33.375 L 384.925781 19.304688 L 418.890625 28.992188 L 436.027344 74.90625 Z M 427.007812 20.207031 L 395.21875 11.140625 L 421.152344 -9.425781 L 419.65625 -51.382812 L 448.949219 -19.9375 L 477.660156 -31.828125 L 465.382812 -2.796875 L 487.914062 19.304688 L 456.773438 19.304688 L 441.726562 59.644531 Z M 478.039062 -5.328125 L 491.703125 -37.648438 L 547.445312 -60.734375 L 569.023438 -23.359375 L 563.410156 19.304688 L 503.152344 19.304688 Z M 552.007812 -74.175781 L 497.621094 -51.652344 L 518.476562 -100.976562 L 576.171875 -77.726562 L 571.308594 -40.742188 Z M 483.574219 -45.832031 L 451.703125 -32.628906 L 419.074219 -67.667969 L 417.363281 -115.589844 L 449.347656 -128.835938 L 508.574219 -104.96875 Z M 463.425781 -134.667969 L 517.6875 -157.144531 L 507.726562 -194.308594 L 536.890625 -171.929688 L 512.734375 -114.796875 Z M 504.957031 -163.417969 L 449.292969 -140.363281 L 416.667969 -153.511719 L 416.921875 -188.554688 L 459.582031 -231.253906 L 493.816406 -204.984375 Z M 458.644531 -245.425781 L 417.03125 -203.765625 L 417.417969 -257.351562 L 479.617188 -257.949219 L 489.273438 -221.917969 Z M 406.28125 -193 L 381.957031 -168.652344 L 338.304688 -188.578125 L 318.402344 -232.152344 L 342.882812 -256.628906 L 406.742188 -257.242188 Z M 353.660156 -267.40625 L 395.191406 -308.941406 L 371.765625 -339.460938 L 407.273438 -329.949219 L 406.824219 -267.921875 Z M 381.023438 -309.867188 L 338.421875 -267.265625 L 303.25 -266.925781 L 290.070312 -299.398438 L 313.140625 -355.171875 L 354.824219 -344 Z M 306.859375 -367.90625 L 284.355469 -313.492188 L 264.207031 -363.144531 L 321.441406 -387.496094 L 344.152344 -357.90625 Z M 278.539062 -299.433594 L 265.386719 -267.632812 L 217.429688 -269.335938 L 182.371094 -301.976562 L 195.621094 -333.960938 L 254.386719 -358.96875 Z M 201.453125 -348.039062 L 223.929688 -402.300781 L 190.605469 -421.535156 L 227.050781 -426.332031 L 250.371094 -368.855469 Z M 210.488281 -397.738281 L 187.429688 -342.074219 L 155.074219 -328.304688 L 130.464844 -353.269531 L 130.433594 -413.613281 L 173.21875 -419.246094 Z M 119.757812 -422.976562 L 119.789062 -364.101562 L 82.175781 -402.261719 L 125.726562 -446.664062 L 158.035156 -428.015625 Z M 119.796875 -348.894531 L 119.816406 -314.46875 L 74.859375 -297.6875 L 29.976562 -314.429688 L 29.976562 -349.046875 L 74.699219 -394.644531 Z M 29.976562 -364.285156 L 29.976562 -423.019531 L -8.171875 -428.039062 L 23.664062 -446.417969 L 67.210938 -402.242188 Z M 19.304688 -413.660156 L 19.304688 -353.40625 L -5.320312 -328.304688 L -37.609375 -341.953125 L -60.730469 -397.695312 L -23.355469 -419.269531 Z M -74.179688 -402.253906 L -51.617188 -347.875 L -100.972656 -368.734375 L -77.722656 -426.421875 L -40.738281 -421.558594 Z M -45.792969 -333.824219 L -32.601562 -302.027344 L -67.714844 -269.320312 L -115.589844 -267.609375 L -128.835938 -299.601562 L -104.964844 -358.832031 Z M -134.667969 -313.679688 L -157.144531 -367.9375 L -194.308594 -357.972656 L -171.929688 -387.136719 L -114.796875 -362.988281 Z M -163.417969 -355.207031 L -140.367188 -299.542969 L -153.515625 -266.914062 L -188.554688 -267.167969 L -231.253906 -309.824219 L -204.984375 -344.0625 Z M -245.425781 -308.894531 L -203.765625 -267.28125 L -257.355469 -267.667969 L -257.953125 -329.863281 L -221.921875 -339.523438 Z M -193.003906 -256.53125 L -168.65625 -232.210938 L -188.582031 -188.554688 L -232.15625 -168.65625 L -256.640625 -193.140625 L -257.25 -256.996094 Z M -267.414062 -203.914062 L -308.941406 -245.441406 L -339.460938 -222.011719 L -329.945312 -257.519531 L -267.921875 -257.074219 Z M -309.867188 -231.273438 L -267.265625 -188.675781 L -266.929688 -153.496094 L -299.398438 -140.324219 L -355.171875 -163.390625 L -344.003906 -205.074219 Z M -313.492188 -134.605469 L -363.140625 -114.460938 L -387.5 -171.691406 L -357.914062 -194.398438 L -367.90625 -157.109375 Z M -299.4375 -128.792969 L -267.636719 -115.640625 L -269.335938 -67.683594 L -301.976562 -32.621094 L -333.941406 -45.863281 L -358.957031 -104.640625 Z M -348.023438 -51.691406 L -402.300781 -74.175781 L -421.535156 -40.851562 L -426.332031 -77.300781 L -368.847656 -100.625 Z M -397.738281 -60.738281 L -342.050781 -37.671875 L -328.289062 -5.335938 L -353.269531 19.289062 L -413.617188 19.320312 L -419.25 -23.464844 Z M -422.976562 29.996094 L -364.101562 29.960938 L -402.253906 67.570312 L -446.65625 24.019531 L -428.011719 -8.28125 Z M -348.894531 29.953125 L -314.46875 29.933594 L -297.6875 74.894531 L -314.429688 119.777344 L -349.027344 119.777344 L -394.636719 75.042969 Z M -364.269531 119.777344 L -423.023438 119.777344 L -428.023438 157.949219 L -446.417969 126.085938 L -402.238281 82.535156 Z M -413.65625 130.449219 L -353.386719 130.449219 L -328.300781 155.058594 L -341.953125 187.363281 L -397.695312 210.488281 L -419.25 173.148438 Z M -402.253906 223.929688 L -347.875 201.371094 L -368.730469 250.714844 L -426.367188 227.496094 L -421.527344 190.546875 Z M -333.828125 195.542969 L -302.027344 182.351562 L -269.320312 217.464844 L -267.613281 265.339844 L -299.570312 278.574219 L -358.832031 254.699219 Z M -313.652344 284.40625 L -367.9375 306.894531 L -357.949219 344.085938 L -387.144531 321.6875 L -362.988281 264.53125 Z M -355.207031 313.171875 L -299.515625 290.105469 L -266.914062 303.238281 L -267.167969 338.304688 L -309.824219 381.007812 L -344.027344 354.769531 Z M -308.894531 395.171875 L -267.28125 353.511719 L -267.667969 407.089844 L -329.808594 407.695312 L -339.476562 371.710938 Z M -256.53125 342.753906 L -232.210938 318.40625 L -188.554688 338.328125 L -168.652344 381.90625 L -193.109375 406.363281 L -256.996094 406.984375 Z M -203.890625 417.140625 L -245.441406 458.691406 L -221.976562 489.230469 L -257.523438 479.707031 L -257.074219 417.660156 Z M -231.273438 459.617188 L -188.648438 416.996094 L -153.507812 416.652344 L -140.324219 449.148438 L -163.390625 504.925781 L -205.03125 493.769531 Z M -157.109375 517.652344 L -134.601562 463.242188 L -114.460938 512.890625 L -171.640625 537.226562 L -194.339844 507.679688 Z M -128.792969 449.1875 L -115.640625 417.386719 L -67.683594 419.089844 L -32.621094 451.726562 L -45.863281 483.691406 L -104.640625 508.710938 Z M -51.691406 497.765625 L -74.179688 552.054688 L -40.8125 571.289062 L -77.296875 576.09375 L -100.628906 518.59375 Z M -60.734375 547.488281 L -37.667969 491.796875 L -5.324219 478.027344 L 19.285156 503 L 19.316406 563.367188 L -23.421875 569 Z M 29.996094 572.726562 L 29.960938 513.832031 L 67.574219 552 L 24.058594 596.367188 L -8.222656 577.761719 Z M 29.953125 498.625 L 29.933594 464.21875 L 74.894531 447.4375 L 119.777344 464.179688 L 119.777344 498.773438 L 75.050781 544.378906 Z M 119.777344 514.007812 L 119.777344 572.773438 L 157.933594 577.792969 L 126.097656 596.175781 L 82.539062 551.976562 Z M 130.449219 563.410156 L 130.449219 503.125 L 155.058594 478.03125 L 187.355469 491.6875 L 210.488281 547.445312 L 173.117188 569.023438 Z M 223.929688 552.007812 L 201.363281 497.609375 L 250.71875 518.476562 L 227.472656 576.175781 L 190.5 571.3125 Z M 195.535156 483.558594 L 182.351562 451.777344 L 217.464844 419.074219 L 265.335938 417.363281 L 278.574219 449.324219 L 254.707031 508.570312 Z M 284.410156 463.40625 L 306.894531 517.6875 L 344.058594 507.722656 L 321.679688 536.886719 L 264.539062 512.730469 Z M 313.171875 504.957031 L 290.105469 449.269531 L 302.632812 418.179688 L 339.640625 418.207031 L 381.007812 459.574219 L 354.734375 493.8125 Z M 395.171875 458.648438 L 354.742188 418.21875 L 407.097656 418.257812 L 407.695312 479.621094 L 371.671875 489.277344 Z M 344.0625 407.539062 L 318.40625 381.882812 L 338.285156 338.328125 L 381.90625 318.40625 L 406.367188 342.871094 L 406.996094 407.585938 Z M 417.144531 353.644531 L 458.6875 395.191406 L 489.210938 371.765625 L 479.597656 407.636719 L 417.667969 407.589844 Z M 459.617188 381.023438 L 416.996094 338.40625 L 416.671875 304.886719 L 450.871094 290.75 L 504.925781 313.140625 L 493.753906 354.824219 Z M 464.832031 284.980469 L 513.222656 264.976562 L 537.25 321.441406 L 507.660156 344.152344 L 517.652344 306.859375 Z M 450.875 279.203125 L 417.351562 265.320312 L 419.050781 217.472656 L 451.726562 182.375 L 483.703125 195.617188 L 509.042969 255.15625 Z M 497.785156 201.449219 L 552.058594 223.929688 L 571.289062 190.609375 L 576.136719 227.425781 L 518.90625 251.082031 Z M 547.492188 210.488281 L 491.816406 187.425781 L 478.046875 155.0625 L 503.035156 130.433594 L 563.371094 130.433594 L 569.003906 173.21875 Z M 572.726562 119.761719 L 513.863281 119.761719 L 552.003906 82.171875 L 596.410156 125.730469 L 577.765625 158.039062 Z M 498.660156 119.761719 L 464.164062 119.761719 L 447.421875 74.90625 L 464.183594 29.976562 L 498.792969 29.976562 L 544.382812 74.695312 Z M 514.03125 29.976562 L 572.773438 29.976562 L 577.789062 -8.171875 L 596.167969 23.660156 L 551.988281 67.203125 Z M 601.542969 -189.085938 L 646.652344 -207.753906 L 685.34375 -178.042969 L 679 -129.578125 L 633.902344 -110.910156 L 595.132812 -140.703125 Z M 583.828125 -135.910156 L 577.609375 -88.652344 L 522.636719 -110.808594 L 545.636719 -165.214844 Z M 532.144531 -258.453125 L 557.453125 -220.574219 L 541.183594 -182.085938 L 503.183594 -211.246094 L 490.636719 -258.054688 Z M 494.96875 -405.050781 L 542.085938 -392.40625 L 554.773438 -345.207031 L 520.25 -310.699219 L 473.03125 -323.382812 L 460.441406 -370.539062 Z M 464.417969 -314.632812 L 476.761719 -268.59375 L 417.496094 -268.023438 L 417.921875 -327.09375 Z M 369.777344 -408.066406 L 407.652344 -382.761719 L 407.351562 -340.972656 L 361.089844 -353.371094 L 331.582031 -391.816406 Z M 279.332031 -529.28125 L 327.703125 -535.628906 L 357.488281 -496.875 L 338.796875 -451.789062 L 290.320312 -445.4375 L 260.640625 -484.183594 Z M 285.710938 -434.054688 L 314.730469 -396.242188 L 260.195312 -373.035156 L 237.984375 -427.773438 Z M 162.515625 -484.160156 L 207.195312 -475.273438 L 222.90625 -436.550781 L 175.417969 -430.300781 L 133.445312 -454.523438 Z M 32.570312 -561.535156 L 74.828125 -585.910156 L 117.171875 -561.503906 L 117.160156 -512.695312 L 74.804688 -488.277344 L 32.558594 -512.71875 Z M 74.902344 -475.996094 L 116.183594 -452.167969 L 74.683594 -409.863281 L 33.214844 -451.933594 Z M -58.089844 -475.144531 L -13.410156 -484.03125 L 15.921875 -454.273438 L -25.558594 -430.324219 L -73.609375 -436.644531 Z M -207.753906 -496.898438 L -178.042969 -535.589844 L -129.578125 -529.25 L -110.910156 -484.148438 L -140.703125 -445.378906 L -189.085938 -451.792969 Z M -135.910156 -434.074219 L -88.652344 -427.859375 L -110.804688 -372.890625 L -165.210938 -395.890625 Z M -258.453125 -382.394531 L -220.574219 -407.703125 L -182.085938 -391.433594 L -211.242188 -353.433594 L -258.050781 -340.882812 Z M -405.050781 -345.21875 L -392.40625 -392.335938 L -345.207031 -405.019531 L -310.699219 -370.496094 L -323.382812 -323.28125 L -370.539062 -310.6875 Z M -314.632812 -314.667969 L -268.59375 -327.011719 L -268.023438 -267.746094 L -327.09375 -268.171875 Z M -408.066406 -220.023438 L -382.761719 -257.90625 L -340.972656 -257.601562 L -353.371094 -211.339844 L -391.816406 -181.832031 Z M -484.183594 -110.886719 L -529.28125 -129.582031 L -535.628906 -177.953125 L -496.875 -207.738281 L -451.785156 -189.046875 L -445.433594 -140.566406 Z M -434.054688 -135.957031 L -396.238281 -164.984375 L -373.027344 -110.445312 L -427.769531 -88.234375 Z M -484.160156 -12.761719 L -475.273438 -57.445312 L -436.554688 -73.15625 L -430.304688 -25.667969 L -454.527344 16.300781 Z M -512.714844 117.195312 L -561.535156 117.1875 L -585.910156 74.925781 L -561.503906 32.578125 L -512.695312 32.589844 L -488.277344 74.945312 Z M -475.996094 74.851562 L -452.167969 33.5625 L -409.855469 75.0625 L -451.933594 116.539062 Z M -475.144531 207.839844 L -484.03125 163.160156 L -454.273438 133.824219 L -430.304688 175.347656 L -436.589844 223.371094 Z M -451.796875 338.839844 L -496.898438 357.507812 L -535.664062 327.714844 L -529.25 279.332031 L -484.144531 260.664062 L -445.453125 290.375 Z M -433.996094 285.742188 L -427.796875 238.421875 L -372.886719 260.546875 L -395.890625 314.972656 Z M -382.394531 408.203125 L -407.703125 370.324219 L -391.4375 331.839844 L -353.394531 361.027344 L -340.828125 407.796875 Z M -345.21875 554.800781 L -392.4375 542.117188 L -405.027344 494.960938 L -370.496094 460.453125 L -323.382812 473.097656 L -310.695312 520.296875 Z M -314.5625 464.425781 L -326.945312 418.335938 L -267.746094 417.761719 L -268.171875 476.851562 Z M -220.023438 557.820312 L -257.90625 532.511719 L -257.601562 490.734375 L -211.289062 503.140625 L -181.78125 541.539062 Z M -129.582031 679.03125 L -178.058594 685.382812 L -207.738281 646.636719 L -189.042969 601.539062 L -140.671875 595.191406 L -110.890625 633.945312 Z M -135.847656 583.804688 L -164.925781 545.964844 L -110.445312 522.777344 L -88.226562 577.535156 Z M -12.761719 633.914062 L -57.445312 625.027344 L -73.152344 586.3125 L -25.609375 580.050781 L 16.34375 604.238281 Z M 117.183594 711.285156 L 74.828125 735.703125 L 32.578125 711.261719 L 32.59375 662.445312 L 74.851562 638.066406 L 117.195312 662.472656 Z M 74.953125 625.707031 L 33.605469 601.871094 L 75.066406 559.597656 L 116.546875 601.6875 Z M 207.839844 624.898438 L 163.160156 633.785156 L 133.832031 604.027344 L 175.3125 580.078125 L 223.347656 586.394531 Z M 338.839844 601.550781 L 357.507812 646.648438 L 327.714844 685.417969 L 279.332031 679.007812 L 260.664062 633.898438 L 290.375 595.207031 Z M 285.660156 583.828125 L 238.398438 577.609375 L 260.550781 522.632812 L 314.964844 545.636719 Z M 408.203125 532.144531 L 370.328125 557.453125 L 331.839844 541.183594 L 360.996094 503.183594 L 407.800781 490.636719 Z M 520.292969 460.449219 L 554.800781 494.972656 L 542.117188 542.1875 L 494.960938 554.777344 L 460.453125 520.25 L 473.097656 473.132812 L 473.097656 473.128906 Z M 464.386719 464.417969 L 418.339844 476.765625 L 417.769531 418.265625 L 476.742188 418.308594 Z M 557.820312 369.777344 L 532.5 407.675781 L 490.644531 407.644531 L 503.121094 361.09375 L 541.5625 331.585938 Z M 633.941406 260.640625 L 679.03125 279.332031 L 685.378906 327.808594 L 646.632812 357.488281 L 601.535156 338.792969 L 595.191406 290.425781 Z M 583.804688 285.710938 L 545.992188 314.730469 L 523.085938 260.898438 L 577.574219 238.375 Z M 633.914062 162.515625 L 625.019531 207.214844 L 586.34375 223.203125 L 580.054688 175.417969 L 604.28125 133.445312 Z M 601.921875 116.183594 L 559.605469 74.675781 L 601.679688 33.210938 L 625.75 74.902344 Z M 601.921875 116.183594 " fill-opacity="1" fill-rule="nonzero"/></g></svg>